<?xml version="1.0" encoding="utf-8"?>
<!-- Generator: Adobe Illustrator 27.6.1, SVG Export Plug-In . SVG Version: 6.00 Build 0)  -->
<svg version="1.1" id="Layer_1" xmlns="http://www.w3.org/2000/svg" xmlns:xlink="http://www.w3.org/1999/xlink" x="0px" y="0px"
	 viewBox="0 0 217 237" style="enable-background:new 0 0 217 237;" xml:space="preserve">
<style type="text/css">
	.st0{display:none;}
	.st1{display:inline;}
	.st2{fill-rule:evenodd;clip-rule:evenodd;fill:#972DC2;}
	.st3{filter:url(#Adobe_OpacityMaskFilter);}
	.st4{fill-rule:evenodd;clip-rule:evenodd;fill:#FFFFFF;}
	.st5{mask:url(#mask-2_00000096038868485138022710000007041620918242353306_);}
	.st6{fill-rule:evenodd;clip-rule:evenodd;fill:#8A4CA8;}
	.st7{filter:url(#Adobe_OpacityMaskFilter_00000094600862136613712130000017364745527298072706_);}
	.st8{mask:url(#mask-4_00000096044395804009600760000004741544101053620629_);}
	.st9{fill-rule:evenodd;clip-rule:evenodd;fill:#D0C6AC;}
	.st10{filter:url(#Adobe_OpacityMaskFilter_00000169516075176344837000000005172491423006636721_);}
	.st11{mask:url(#mask-6_00000142867112575954294940000011867106281963552663_);}
	.st12{fill-rule:evenodd;clip-rule:evenodd;fill:#FFDBB4;}
	.st13{filter:url(#Adobe_OpacityMaskFilter_00000093171891419293182310000009205909940888806020_);}
	
		.st14{mask:url(#mask-6_00000079480782651760243860000018319794848397353127_);fill-rule:evenodd;clip-rule:evenodd;fill-opacity:0.1;}
	.st15{fill-rule:evenodd;clip-rule:evenodd;fill:#B7C1DB;}
	.st16{filter:url(#Adobe_OpacityMaskFilter_00000065768483274717189630000014323828545077156748_);}
	.st17{mask:url(#mask-8_00000036943212284727607170000004145519897600591274_);}
	.st18{fill-rule:evenodd;clip-rule:evenodd;fill:#293347;}
	.st19{filter:url(#Adobe_OpacityMaskFilter_00000099634550876035307000000013812719694523709881_);}
	.st20{mask:url(#mask-8_00000004545683793863279960000013625116191467927457_);fill-rule:evenodd;clip-rule:evenodd;fill:#F4F4F4;}
	.st21{filter:url(#Adobe_OpacityMaskFilter_00000056399985087264915970000015905982778392188850_);}
	
		.st22{mask:url(#mask-8_00000124130461034040537320000015002413477727188646_);fill-rule:evenodd;clip-rule:evenodd;fill-opacity:0.16;}
	.st23{fill-rule:evenodd;clip-rule:evenodd;fill-opacity:0.7;}
	.st24{filter:url(#Adobe_OpacityMaskFilter_00000124880857079142278480000007047101564699379355_);}
	.st25{mask:url(#mask-10_00000093136198813603452890000011380710997329064586_);fill-rule:evenodd;clip-rule:evenodd;fill:#FFFFFF;}
	.st26{filter:url(#Adobe_OpacityMaskFilter_00000016794639308888579920000002309830351840818843_);}
	.st27{mask:url(#mask-10_00000013180154075030723460000009932681190746555817_);}
	.st28{fill-rule:evenodd;clip-rule:evenodd;fill:#FF4F6D;}
	.st29{fill-rule:evenodd;clip-rule:evenodd;fill-opacity:0.16;}
	.st30{fill-rule:evenodd;clip-rule:evenodd;fill-opacity:0.6;}
	.st31{display:inline;fill-rule:evenodd;clip-rule:evenodd;fill-opacity:0.6;}
	.st32{filter:url(#Adobe_OpacityMaskFilter_00000101092374009274567890000009007733497620847014_);}
	.st33{mask:url(#mask-12_00000176045232313787050190000014145725635574624955_);}
	.st34{fill-rule:evenodd;clip-rule:evenodd;fill:#1F3140;}
	.st35{filter:url(#Adobe_OpacityMaskFilter_00000097458999322971111970000011601943618462211248_);}
	.st36{mask:url(#mask-14_00000073692333645352658970000006987596216574515131_);}
	.st37{fill-rule:evenodd;clip-rule:evenodd;fill:#4A312C;}
</style>
<g id="Website" class="st0">
	<g id="mf-avatar" transform="translate(-10.000000, -15.000000)" class="st1">
		<g id="Circle" transform="translate(10.800000, 36.000000)">
			<g id="Circle-Background">
				<circle id="path-1_00000044173838333753785780000001139787840387813044_" class="st2" cx="108" cy="108" r="108"/>
			</g>
			<defs>
				<filter id="Adobe_OpacityMaskFilter" filterUnits="userSpaceOnUse" x="0" y="0" width="216.4" height="216">
					<feColorMatrix  type="matrix" values="1 0 0 0 0  0 1 0 0 0  0 0 1 0 0  0 0 0 1 0"/>
				</filter>
			</defs>
			
				<mask maskUnits="userSpaceOnUse" x="0" y="0" width="216.4" height="216" id="mask-2_00000096038868485138022710000007041620918242353306_">
				<g class="st3">
					<circle id="path-1_00000171677859641263846550000014697701135316936595_" class="st4" cx="108" cy="108" r="108"/>
				</g>
			</mask>
			<g id="_xD83D__xDD8D_-Circle-Color" class="st5">
				<rect id="_xD83D__xDD8D_Color" x="0" class="st6" width="216.4" height="216"/>
			</g>
		</g>
		<g id="Mask">
		</g>
		<defs>
			
				<filter id="Adobe_OpacityMaskFilter_00000175308036746059349330000016086338331292381595_" filterUnits="userSpaceOnUse" x="-0.1" y="0" width="239.1" height="252.8">
				<feColorMatrix  type="matrix" values="1 0 0 0 0  0 1 0 0 0  0 0 1 0 0  0 0 0 1 0"/>
			</filter>
		</defs>
		
			<mask maskUnits="userSpaceOnUse" x="-0.1" y="0" width="239.1" height="252.8" id="mask-4_00000096044395804009600760000004741544101053620629_">
			<g style="filter:url(#Adobe_OpacityMaskFilter_00000175308036746059349330000016086338331292381595_);">
				<path id="path-3_00000139278186153278894370000017573523255937719467_" class="st4" d="M0,144V0h237.6v144h-10.8
					c0,59.6-48.4,108-108,108s-108-48.4-108-108l0,0H0z"/>
			</g>
		</mask>
		<g id="Avataaar" class="st8">
			<g id="Body" transform="translate(28.800000, 32.400000)">
				<g>
					<path id="path-5_00000138571028308444068690000008311754597966301059_" class="st9" d="M90,0c27.8,0,50.4,22.6,50.4,50.4l0,5.5
						c5.1,0.9,9,5.3,9,10.7v12.6c0,5.4-4,10-9.3,10.7c-1.9,17.8-13,32.9-28.5,40.3l0,16.6h3.6c35.8,0,64.8,29,64.8,64.8v8.1H0v-8.1
						c0-35.8,29-64.8,64.8-64.8h3.6l0-16.6c-15.5-7.4-26.7-22.4-28.5-40.3c-5.2-0.7-9.3-5.2-9.3-10.7V66.6c0-5.4,3.9-9.8,9-10.7
						l0-5.5C39.6,22.6,62.2,0,90,0z"/>
				</g>
				<defs>
					
						<filter id="Adobe_OpacityMaskFilter_00000040574104389571721490000010295968136484337077_" filterUnits="userSpaceOnUse" x="-28.8" y="0" width="238.4" height="220.4">
						<feColorMatrix  type="matrix" values="1 0 0 0 0  0 1 0 0 0  0 0 1 0 0  0 0 0 1 0"/>
					</filter>
				</defs>
				
					<mask maskUnits="userSpaceOnUse" x="-28.8" y="0" width="238.4" height="220.4" id="mask-6_00000142867112575954294940000011867106281963552663_">
					<g style="filter:url(#Adobe_OpacityMaskFilter_00000040574104389571721490000010295968136484337077_);">
						<path id="path-5_00000101818225488391082280000008326240618161992879_" class="st4" d="M90,0c27.8,0,50.4,22.6,50.4,50.4
							l0,5.5c5.1,0.9,9,5.3,9,10.7v12.6c0,5.4-4,10-9.3,10.7c-1.9,17.8-13,32.9-28.5,40.3l0,16.6h3.6c35.8,0,64.8,29,64.8,64.8v8.1
							H0v-8.1c0-35.8,29-64.8,64.8-64.8h3.6l0-16.6c-15.5-7.4-26.7-22.4-28.5-40.3c-5.2-0.7-9.3-5.2-9.3-10.7V66.6
							c0-5.4,3.9-9.8,9-10.7l0-5.5C39.6,22.6,62.2,0,90,0z"/>
					</g>
				</mask>
				<g id="Skin_x2F__xD83D__xDC76__xD83C__xDFFB_-05-Pale" class="st11">
					<g id="Color" transform="translate(-28.800000, 0.000000)">
						<rect y="0" class="st12" width="238.4" height="220.4"/>
					</g>
				</g>
				<defs>
					
						<filter id="Adobe_OpacityMaskFilter_00000035498541754059889890000001210815862573090477_" filterUnits="userSpaceOnUse" x="39.6" y="84.6" width="100.8" height="57.6">
						<feColorMatrix  type="matrix" values="1 0 0 0 0  0 1 0 0 0  0 0 1 0 0  0 0 0 1 0"/>
					</filter>
				</defs>
				
					<mask maskUnits="userSpaceOnUse" x="39.6" y="84.6" width="100.8" height="57.6" id="mask-6_00000079480782651760243860000018319794848397353127_">
					<g style="filter:url(#Adobe_OpacityMaskFilter_00000035498541754059889890000001210815862573090477_);">
						<path id="path-5_00000096779301757725268760000004703386401247797889_" class="st4" d="M90,0c27.8,0,50.4,22.6,50.4,50.4
							l0,5.5c5.1,0.9,9,5.3,9,10.7v12.6c0,5.4-4,10-9.3,10.7c-1.9,17.8-13,32.9-28.5,40.3l0,16.6h3.6c35.8,0,64.8,29,64.8,64.8v8.1
							H0v-8.1c0-35.8,29-64.8,64.8-64.8h3.6l0-16.6c-15.5-7.4-26.7-22.4-28.5-40.3c-5.2-0.7-9.3-5.2-9.3-10.7V66.6
							c0-5.4,3.9-9.8,9-10.7l0-5.5C39.6,22.6,62.2,0,90,0z"/>
					</g>
				</mask>
				<path id="Neck-Shadow" class="st14" d="M39.6,84.6c0,27.8,22.6,50.4,50.4,50.4s50.4-22.6,50.4-50.4l0,0v7.2
					c0,27.8-22.6,50.4-50.4,50.4s-50.4-22.6-50.4-50.4V84.6z"/>
			</g>
			<g id="Clothing_x2F_Hoodie" transform="translate(0.000000, 153.000000)">
				<g id="Hoodie">
					<path id="path-7_00000045609768442184604780000005830120816874055091_" class="st15" d="M140.4,11.8
						c16.3,1.8,28.8,6.8,28.8,19.8l0-0.4c23.3,9.8,39.6,32.9,39.6,59.7V99h-180v-8.1C28.8,64,45.1,41,68.4,31.2
						c0.2-12.7,12.7-17.6,28.8-19.4l0,17c0,11.9,9.7,21.6,21.6,21.6s21.6-9.7,21.6-21.6l0,0L140.4,11.8z"/>
				</g>
				<defs>
					
						<filter id="Adobe_OpacityMaskFilter_00000049197300014126051320000010262586435928493187_" filterUnits="userSpaceOnUse" x="0" y="0" width="238.5" height="99">
						<feColorMatrix  type="matrix" values="1 0 0 0 0  0 1 0 0 0  0 0 1 0 0  0 0 0 1 0"/>
					</filter>
				</defs>
				
					<mask maskUnits="userSpaceOnUse" x="0" y="0" width="238.5" height="99" id="mask-8_00000036943212284727607170000004145519897600591274_">
					<g style="filter:url(#Adobe_OpacityMaskFilter_00000049197300014126051320000010262586435928493187_);">
						<path id="path-7_00000085944399438298605020000016056876073015605134_" class="st4" d="M140.4,11.8
							c16.3,1.8,28.8,6.8,28.8,19.8l0-0.4c23.3,9.8,39.6,32.9,39.6,59.7V99h-180v-8.1C28.8,64,45.1,41,68.4,31.2
							c0.2-12.7,12.7-17.6,28.8-19.4l0,17c0,11.9,9.7,21.6,21.6,21.6s21.6-9.7,21.6-21.6l0,0L140.4,11.8z"/>
					</g>
				</mask>
				<g id="Color_x2F_Palette_x2F_Slate" class="st17">
					<rect id="_xD83D__xDD8D_Color_00000103232240500169023840000000693608090378119566_" class="st18" width="238.5" height="99"/>
				</g>
				<defs>
					
						<filter id="Adobe_OpacityMaskFilter_00000143615939328436439400000011591489309720101523_" filterUnits="userSpaceOnUse" x="85.5" y="52.3" width="66.6" height="46.7">
						<feColorMatrix  type="matrix" values="1 0 0 0 0  0 1 0 0 0  0 0 1 0 0  0 0 0 1 0"/>
					</filter>
				</defs>
				
					<mask maskUnits="userSpaceOnUse" x="85.5" y="52.3" width="66.6" height="46.7" id="mask-8_00000004545683793863279960000013625116191467927457_">
					<g style="filter:url(#Adobe_OpacityMaskFilter_00000143615939328436439400000011591489309720101523_);">
						<path id="path-7_00000183958572040674797710000003209228025738754716_" class="st4" d="M140.4,11.8
							c16.3,1.8,28.8,6.8,28.8,19.8l0-0.4c23.3,9.8,39.6,32.9,39.6,59.7V99h-180v-8.1C28.8,64,45.1,41,68.4,31.2
							c0.2-12.7,12.7-17.6,28.8-19.4l0,17c0,11.9,9.7,21.6,21.6,21.6s21.6-9.7,21.6-21.6l0,0L140.4,11.8z"/>
					</g>
				</mask>
				<path id="Straps" class="st20" d="M91.8,55.6l0,43.4h-6.3l0-46.7C87.5,53.5,89.6,54.6,91.8,55.6z M152.1,52.3l0,36.3
					c0,1.7-1.4,3.2-3.2,3.2s-3.1-1.4-3.1-3.2l0-33.1C148,54.6,150.1,53.5,152.1,52.3z"/>
				<defs>
					
						<filter id="Adobe_OpacityMaskFilter_00000094594243576167959530000002285737336068389567_" filterUnits="userSpaceOnUse" x="59" y="11.5" width="119.7" height="49.7">
						<feColorMatrix  type="matrix" values="1 0 0 0 0  0 1 0 0 0  0 0 1 0 0  0 0 0 1 0"/>
					</filter>
				</defs>
				
					<mask maskUnits="userSpaceOnUse" x="59" y="11.5" width="119.7" height="49.7" id="mask-8_00000124130461034040537320000015002413477727188646_">
					<g style="filter:url(#Adobe_OpacityMaskFilter_00000094594243576167959530000002285737336068389567_);">
						<path id="path-7_00000042714636920103881920000000390507395164972977_" class="st4" d="M140.4,11.8
							c16.3,1.8,28.8,6.8,28.8,19.8l0-0.4c23.3,9.8,39.6,32.9,39.6,59.7V99h-180v-8.1C28.8,64,45.1,41,68.4,31.2
							c0.2-12.7,12.7-17.6,28.8-19.4l0,17c0,11.9,9.7,21.6,21.6,21.6s21.6-9.7,21.6-21.6l0,0L140.4,11.8z"/>
					</g>
				</mask>
				<path id="Shadow" class="st22" d="M155.7,11.5c13.5,2.6,22.9,7.7,22.9,17.6c0,17.7-29.7,32.1-59.8,32.1S59,46.8,59,29.1
					c0-10,9.4-15.1,22.9-17.6c-8.2,3-13.5,8.1-13.5,16.5c0,18.4,25,33.2,50.4,33.2s50.4-14.9,50.4-33.2c0-8.3-5.1-13.3-13-16.3
					L155.7,11.5z"/>
			</g>
			<g id="Face" transform="translate(68.400000, 73.800000)">
				<g id="Mouth_x2F_Smile" transform="translate(1.800000, 46.800000)">
					<g id="Mouth">
						<path id="path-9_00000125578308685491291820000009455116383272862364_" class="st23" d="M31.6,13.6c1,8.5,8.2,15.2,17,15.2
							c8.8,0,16.1-6.7,17-15.3c0.1-0.7-0.7-1.8-1.7-1.8c-13.4,0-23.7,0-30.6,0C32.4,11.7,31.5,12.8,31.6,13.6z"/>
					</g>
					<defs>
						
							<filter id="Adobe_OpacityMaskFilter_00000182509365722553745950000014861401290584926134_" filterUnits="userSpaceOnUse" x="35.1" y="1.8" width="27.9" height="14.4">
							<feColorMatrix  type="matrix" values="1 0 0 0 0  0 1 0 0 0  0 0 1 0 0  0 0 0 1 0"/>
						</filter>
					</defs>
					
						<mask maskUnits="userSpaceOnUse" x="35.1" y="1.8" width="27.9" height="14.4" id="mask-10_00000093136198813603452890000011380710997329064586_">
						<g style="filter:url(#Adobe_OpacityMaskFilter_00000182509365722553745950000014861401290584926134_);">
							<path id="path-9_00000042717244031470372670000006400379797309390983_" class="st4" d="M31.6,13.6c1,8.5,8.2,15.2,17,15.2
								c8.8,0,16.1-6.7,17-15.3c0.1-0.7-0.7-1.8-1.7-1.8c-13.4,0-23.7,0-30.6,0C32.4,11.7,31.5,12.8,31.6,13.6z"/>
						</g>
					</mask>
					<path id="Teeth" class="st25" d="M39.6,1.8h18.9c2.5,0,4.5,2,4.5,4.5v5.4c0,2.5-2,4.5-4.5,4.5H39.6c-2.5,0-4.5-2-4.5-4.5V6.3
						C35.1,3.8,37.1,1.8,39.6,1.8z"/>
					<defs>
						
							<filter id="Adobe_OpacityMaskFilter_00000150063060394003074080000007268797232656311967_" filterUnits="userSpaceOnUse" x="34.2" y="21.6" width="28.8" height="19.8">
							<feColorMatrix  type="matrix" values="1 0 0 0 0  0 1 0 0 0  0 0 1 0 0  0 0 0 1 0"/>
						</filter>
					</defs>
					
						<mask maskUnits="userSpaceOnUse" x="34.2" y="21.6" width="28.8" height="19.8" id="mask-10_00000013180154075030723460000009932681190746555817_">
						<g style="filter:url(#Adobe_OpacityMaskFilter_00000150063060394003074080000007268797232656311967_);">
							<path id="path-9_00000151526375432349525520000009884494979323565727_" class="st4" d="M31.6,13.6c1,8.5,8.2,15.2,17,15.2
								c8.8,0,16.1-6.7,17-15.3c0.1-0.7-0.7-1.8-1.7-1.8c-13.4,0-23.7,0-30.6,0C32.4,11.7,31.5,12.8,31.6,13.6z"/>
						</g>
					</mask>
					<g id="Tongue" class="st27">
						<g transform="translate(34.200000, 21.600000)">
							<circle class="st28" cx="9.9" cy="9.9" r="9.9"/>
							<circle class="st28" cx="18.9" cy="9.9" r="9.9"/>
						</g>
					</g>
				</g>
				<g id="Nose_x2F_Default" transform="translate(25.200000, 36.000000)">
					<path id="Nose" class="st29" d="M14.4,7.2c0,4,4.8,7.2,10.8,7.2l0,0c6,0,10.8-3.2,10.8-7.2"/>
				</g>
				<g id="Eyes_x2F_Happy-_xD83D__xDE01_" transform="translate(0.000000, 7.200000)">
					<path id="Squint" class="st30" d="M14.5,20.2c1.7-3.4,5.4-5.8,9.8-5.8c4.3,0,8.1,2.4,9.7,5.8c0.5,1-0.2,1.8-0.9,1.2
						c-2.2-1.9-5.3-3.1-8.8-3.1c-3.4,0-6.4,1.1-8.6,2.9C14.9,21.9,14.1,21.2,14.5,20.2z"/>
					<path id="Squint_00000118367673601885601900000001402754401646755218_" class="st30" d="M66.7,20.2c1.7-3.4,5.4-5.8,9.8-5.8
						c4.3,0,8.1,2.4,9.7,5.8c0.5,1-0.2,1.8-0.9,1.2c-2.2-1.9-5.3-3.1-8.8-3.1c-3.4,0-6.4,1.1-8.6,2.9C67.1,21.9,66.3,21.2,66.7,20.2
						z"/>
				</g>
				<g id="Eyebrow_x2F_Natural_x2F_Default-Natural" class="st0">
					<path id="Eyebrow" class="st31" d="M23.9,5.5c-5.2,0.2-13.7,4-13.5,9.3c0,0.2,0.3,0.2,0.4,0.1c2.5-2.7,20.1-5.4,26.3-3.9
						c0.6,0.1,1-0.4,0.6-0.8C34.7,6.7,28.6,5.3,23.9,5.5"/>
					<path id="Eyebrow_00000113314114931100553580000000232732612656006308_" class="st31" d="M77.8,5.5c5.2,0.2,13.7,4,13.5,9.3
						c0,0.2-0.3,0.2-0.4,0.1c-2.5-2.7-20.1-5.4-26.3-3.9c-0.6,0.1-1-0.4-0.6-0.8C67,6.7,73.1,5.3,77.8,5.5"/>
				</g>
			</g>
			<g id="Top">
				<g id="Mask_00000008830921284640175440000010148734978404052621_">
				</g>
				<defs>
					
						<filter id="Adobe_OpacityMaskFilter_00000103241244333617869780000015002511385394639766_" filterUnits="userSpaceOnUse" x="-0.1" y="0" width="239.1" height="252.4">
						<feColorMatrix  type="matrix" values="1 0 0 0 0  0 1 0 0 0  0 0 1 0 0  0 0 0 1 0"/>
					</filter>
				</defs>
				
					<mask maskUnits="userSpaceOnUse" x="-0.1" y="0" width="239.1" height="252.4" id="mask-12_00000176045232313787050190000014145725635574624955_">
					<g style="filter:url(#Adobe_OpacityMaskFilter_00000103241244333617869780000015002511385394639766_);">
						<rect id="path-11_00000078762548344472633550000005604863611767309719_" class="st4" width="237.6" height="252"/>
					</g>
				</mask>
				<g class="st33">
					<g transform="translate(43.000000, 15.000000)">
						<g id="Short-Hair">
							<path id="path-13_00000017498533612907483920000012646639657084213136_" class="st34" d="M118.1,20.9
								c-2.5-2.5-5.4-4.7-8.2-6.9c-0.6-0.5-1.2-0.9-1.9-1.4c-0.1-0.1-1.5-1.1-1.7-1.5c-0.4-0.9-0.2-0.2-0.1-1.3
								c0.1-1.3,2.8-5.2,0.8-6c-0.9-0.4-2.5,0.6-3.4,1c-1.7,0.7-3.4,1.2-5.2,1.7c0.8-1.7,2.4-5-0.6-4.1c-2.3,0.7-4.5,2.5-6.9,3.3
								c0.8-1.3,3.9-5.2,1.1-5.5c-0.9-0.1-3.4,1.6-4.4,1.9c-2.8,1-5.7,1.7-8.7,2.3C69,6.3,57.2,5.8,47.9,10.4
								c-7.2,3.5-14.3,9-18.4,16c-4,6.7-5.5,14.1-6.3,21.8c-0.6,5.7-0.7,11.5-0.4,17.2c0.1,1.9,0.3,10.4,3,7.8
								c1.3-1.3,1.3-6.5,1.7-8.3c0.7-3.5,1.3-7.1,2.5-10.5c2-6,4.3-8.8,9.3-13c3.2-2.7,5.4-6.2,8.4-8.9c1.4-1.2,0.3-1.1,2.5-0.9
								c1.5,0.1,3,0.1,4.4,0.2C58,32,61.4,32,64.8,32c6.9,0,13.7,0.1,20.6-0.2c3.1-0.2,6.1-0.2,9.2-0.5c1.7-0.2,4.7-1.2,6.1-0.4
								c1.3,0.8,2.6,3.3,3.5,4.3c2.2,2.4,4.8,4.3,7.3,6.2c5.3,4.1,8,5.7,9.6,12.1c1.6,6.4,1.2,12.4,3.1,18.7c0.3,1.1,1.3,3,2.4,1.3
								c0.2-0.3,0.2-2.1,0.2-3.1c0-4.1,1-7.1,1-11.2C127.8,46.7,127.4,30.4,118.1,20.9z"/>
						</g>
						<defs>
							
								<filter id="Adobe_OpacityMaskFilter_00000026850762974781839220000006944129485375866784_" filterUnits="userSpaceOnUse" x="-43.1" y="-15" width="239.1" height="252.4">
								<feColorMatrix  type="matrix" values="1 0 0 0 0  0 1 0 0 0  0 0 1 0 0  0 0 0 1 0"/>
							</filter>
						</defs>
						
							<mask maskUnits="userSpaceOnUse" x="-43.1" y="-15" width="239.1" height="252.4" id="mask-14_00000073692333645352658970000006987596216574515131_">
							<g style="filter:url(#Adobe_OpacityMaskFilter_00000026850762974781839220000006944129485375866784_);">
								<path id="path-13_00000062184280828236296040000010001303254247256249_" class="st4" d="M118.1,20.9
									c-2.5-2.5-5.4-4.7-8.2-6.9c-0.6-0.5-1.2-0.9-1.9-1.4c-0.1-0.1-1.5-1.1-1.7-1.5c-0.4-0.9-0.2-0.2-0.1-1.3
									c0.1-1.3,2.8-5.2,0.8-6c-0.9-0.4-2.5,0.6-3.4,1c-1.7,0.7-3.4,1.2-5.2,1.7c0.8-1.7,2.4-5-0.6-4.1c-2.3,0.7-4.5,2.5-6.9,3.3
									c0.8-1.3,3.9-5.2,1.1-5.5c-0.9-0.1-3.4,1.6-4.4,1.9c-2.8,1-5.7,1.7-8.7,2.3C69,6.3,57.2,5.8,47.9,10.4
									c-7.2,3.5-14.3,9-18.4,16c-4,6.7-5.5,14.1-6.3,21.8c-0.6,5.7-0.7,11.5-0.4,17.2c0.1,1.9,0.3,10.4,3,7.8
									c1.3-1.3,1.3-6.5,1.7-8.3c0.7-3.5,1.3-7.1,2.5-10.5c2-6,4.3-8.8,9.3-13c3.2-2.7,5.4-6.2,8.4-8.9c1.4-1.2,0.3-1.1,2.5-0.9
									c1.5,0.1,3,0.1,4.4,0.2C58,32,61.4,32,64.8,32c6.9,0,13.7,0.1,20.6-0.2c3.1-0.2,6.1-0.2,9.2-0.5c1.7-0.2,4.7-1.2,6.1-0.4
									c1.3,0.8,2.6,3.3,3.5,4.3c2.2,2.4,4.8,4.3,7.3,6.2c5.3,4.1,8,5.7,9.6,12.1c1.6,6.4,1.2,12.4,3.1,18.7c0.3,1.1,1.3,3,2.4,1.3
									c0.2-0.3,0.2-2.1,0.2-3.1c0-4.1,1-7.1,1-11.2C127.8,46.7,127.4,30.4,118.1,20.9z"/>
							</g>
						</mask>
						<g id="Color_x2F_Hair_x2F_Brown-Dark" class="st36">
							<g id="Color_00000142882299517537271340000013353087979115455408_" transform="translate(-43.100000, -15.000000)">
								<rect x="0" class="st37" width="239.1" height="252.4"/>
							</g>
						</g>
					</g>
				</g>
			</g>
		</g>
	</g>
</g>
<image style="overflow:visible;" width="904" height="988" xlink:href="avatar.png"  transform="matrix(0.24 0 0 0.24 2.000000e-02 -6.000000e-02)">
</image>
</svg>
